<svg id="wave" style="transform:rotate(0deg); transition: 0.3s" viewBox="0 0 1440 200" version="1.1" xmlns="http://www.w3.org/2000/svg"><defs><linearGradient id="sw-gradient-0" x1="0" x2="0" y1="1" y2="0"><stop stop-color="rgba(14, 145, 164, 1)" offset="0%"></stop><stop stop-color="rgba(14, 145, 164, 1)" offset="100%"></stop></linearGradient></defs><path style="transform:translate(0, 0px); opacity:1" fill="url(#sw-gradient-0)" d="M0,40L26.7,33.3C53.3,27,107,13,160,10C213.3,7,267,13,320,43.3C373.3,73,427,127,480,143.3C533.3,160,587,140,640,120C693.3,100,747,80,800,86.7C853.3,93,907,127,960,140C1013.3,153,1067,147,1120,120C1173.3,93,1227,47,1280,43.3C1333.3,40,1387,80,1440,110C1493.3,140,1547,160,1600,163.3C1653.3,167,1707,153,1760,140C1813.3,127,1867,113,1920,106.7C1973.3,100,2027,100,2080,110C2133.3,120,2187,140,2240,136.7C2293.3,133,2347,107,2400,93.3C2453.3,80,2507,80,2560,96.7C2613.3,113,2667,147,2720,156.7C2773.3,167,2827,153,2880,146.7C2933.3,140,2987,140,3040,123.3C3093.3,107,3147,73,3200,63.3C3253.3,53,3307,67,3360,70C3413.3,73,3467,67,3520,76.7C3573.3,87,3627,113,3680,120C3733.3,127,3787,113,3813,106.7L3840,100L3840,200L3813.3,200C3786.7,200,3733,200,3680,200C3626.7,200,3573,200,3520,200C3466.7,200,3413,200,3360,200C3306.7,200,3253,200,3200,200C3146.7,200,3093,200,3040,200C2986.7,200,2933,200,2880,200C2826.7,200,2773,200,2720,200C2666.7,200,2613,200,2560,200C2506.7,200,2453,200,2400,200C2346.7,200,2293,200,2240,200C2186.7,200,2133,200,2080,200C2026.7,200,1973,200,1920,200C1866.7,200,1813,200,1760,200C1706.7,200,1653,200,1600,200C1546.7,200,1493,200,1440,200C1386.7,200,1333,200,1280,200C1226.7,200,1173,200,1120,200C1066.7,200,1013,200,960,200C906.7,200,853,200,800,200C746.7,200,693,200,640,200C586.7,200,533,200,480,200C426.7,200,373,200,320,200C266.7,200,213,200,160,200C106.7,200,53,200,27,200L0,200Z"></path><defs><linearGradient id="sw-gradient-1" x1="0" x2="0" y1="1" y2="0"><stop stop-color="rgba(14, 145, 164, 1)" offset="0%"></stop><stop stop-color="rgba(14, 145, 164, 1)" offset="100%"></stop></linearGradient></defs><path style="transform:translate(0, 50px); opacity:0.9" fill="url(#sw-gradient-1)" d="M0,120L26.7,106.7C53.3,93,107,67,160,50C213.3,33,267,27,320,50C373.3,73,427,127,480,143.3C533.3,160,587,140,640,120C693.3,100,747,80,800,90C853.3,100,907,140,960,140C1013.3,140,1067,100,1120,90C1173.3,80,1227,100,1280,103.3C1333.3,107,1387,93,1440,90C1493.3,87,1547,93,1600,90C1653.3,87,1707,73,1760,56.7C1813.3,40,1867,20,1920,20C1973.3,20,2027,40,2080,56.7C2133.3,73,2187,87,2240,76.7C2293.3,67,2347,33,2400,33.3C2453.3,33,2507,67,2560,73.3C2613.3,80,2667,60,2720,60C2773.3,60,2827,80,2880,103.3C2933.3,127,2987,153,3040,163.3C3093.3,173,3147,167,3200,153.3C3253.3,140,3307,120,3360,110C3413.3,100,3467,100,3520,96.7C3573.3,93,3627,87,3680,90C3733.3,93,3787,107,3813,113.3L3840,120L3840,200L3813.3,200C3786.7,200,3733,200,3680,200C3626.7,200,3573,200,3520,200C3466.7,200,3413,200,3360,200C3306.7,200,3253,200,3200,200C3146.7,200,3093,200,3040,200C2986.7,200,2933,200,2880,200C2826.7,200,2773,200,2720,200C2666.7,200,2613,200,2560,200C2506.7,200,2453,200,2400,200C2346.7,200,2293,200,2240,200C2186.7,200,2133,200,2080,200C2026.7,200,1973,200,1920,200C1866.7,200,1813,200,1760,200C1706.7,200,1653,200,1600,200C1546.7,200,1493,200,1440,200C1386.7,200,1333,200,1280,200C1226.7,200,1173,200,1120,200C1066.7,200,1013,200,960,200C906.7,200,853,200,800,200C746.7,200,693,200,640,200C586.7,200,533,200,480,200C426.7,200,373,200,320,200C266.7,200,213,200,160,200C106.7,200,53,200,27,200L0,200Z"></path></svg>